<?xml version="1.0" encoding="UTF-8" standalone="no"?>
<!DOCTYPE svg PUBLIC "-//W3C//DTD SVG 1.1//EN" "http://www.w3.org/Graphics/SVG/1.1/DTD/svg11.dtd">
<svg width="100%" height="100%" viewBox="0 0 842 842" version="1.1" xmlns="http://www.w3.org/2000/svg" xmlns:xlink="http://www.w3.org/1999/xlink" xml:space="preserve" xmlns:serif="http://www.serif.com/" style="fill-rule:evenodd;clip-rule:evenodd;stroke-linecap:round;stroke-miterlimit:10;">
    <g id="BG">
        <rect x="0" y="0.57" width="841.89" height="842.13" style="fill:rgb(255,165,0);"/>
    </g>
    <g id="BOOKS">
        <g>
            <path d="M422.92,780.52C311.73,699.06 153.47,751.65 153.47,751.65" style="fill:none;fill-rule:nonzero;stroke:white;stroke-width:26px;"/>
            <path d="M403.27,714.8C304.25,663.04 183.94,687.76 183.94,687.76" style="fill:none;fill-rule:nonzero;stroke:white;stroke-width:26px;"/>
            <path d="M422.92,780.32C534.11,698.86 692.37,751.45 692.37,751.45" style="fill:none;fill-rule:nonzero;stroke:white;stroke-width:26px;"/>
            <path d="M442.57,714.6C541.59,662.84 661.9,687.56 661.9,687.56" style="fill:none;fill-rule:nonzero;stroke:white;stroke-width:26px;"/>
        </g>
    </g>
    <g id="FACE">
        <g>
            <path d="M645.99,414.36C699.04,384.85 716.31,341.7 716.57,282.83C716.68,257.79 713.06,232.87 706.18,208.79C698.18,180.79 686.92,139.24 680.22,102.16C674.06,68.08 633.35,53.32 606.86,75.64C564.05,111.71 545.73,164.32 526.17,231.43L526.17,232.32C525.3,235.3 522.18,237 519.2,236.12C457.17,217.84 355.29,229.12 333.36,236.9C329.98,238.1 326.38,235.87 325.95,232.31L325.95,231.42C318.96,173.73 301.59,120.77 279.21,84.07C258.44,50.01 206.97,57.5 197.02,96.13C186.81,135.8 172.14,183.99 161.14,214.46C152.29,239 146.93,264.69 145.77,290.75C143.34,345.23 159.36,382.87 207.37,415.21C216.37,421.27 222.67,430.59 225.03,441.18C228.21,455.44 229.95,470.09 229.76,484.56C229.6,496.41 228.37,508.31 229.75,520.08C233.44,551.44 255.47,578.09 281.45,596.04C301.05,609.57 353.71,623.84 393.37,628C417.37,630.51 432,630.38 462.17,628.15C501.66,625.23 554.07,610.48 573.68,596.76C599.55,578.65 621.4,551.85 624.88,520.47C626.19,508.69 624.88,496.8 624.64,484.95C624.32,468.98 626.89,450.81 630.84,434.27C632.87,425.79 638.39,418.6 645.99,414.36Z" style="fill:white;fill-rule:nonzero;"/>
            <g>
                <path d="M649.78,420.84C678.89,404.49 702.01,380.69 713.74,349.11C726.7,314.22 726.3,273.98 720.37,237.75C717.02,217.31 710.68,197.59 705.34,177.62C699.71,156.56 694.47,135.38 690.13,114.02C688.31,105.05 687.21,96.02 683.39,87.62C680.4,81.05 675.79,74.98 670.26,70.35C658.4,60.42 643.13,55.93 627.8,58.17C611.39,60.57 599.04,71.49 588.02,83.13C576.41,95.4 566.6,109.38 558.46,124.17C549.75,139.99 542.79,156.76 536.66,173.73C533.31,183.01 530.22,192.38 527.27,201.79C525.77,206.58 524.3,211.39 522.86,216.2C522.21,218.39 521.56,220.58 520.91,222.77C520.19,225.2 518.24,228.93 518.69,231.43C519.02,233.24 521.87,229.83 520.61,228.72C520.1,228.27 518.87,228.23 518.2,228.04C516.35,227.53 514.5,227.06 512.63,226.61C508.56,225.63 504.45,224.79 500.33,224.05C491.69,222.5 482.96,221.37 474.22,220.55C457.03,218.92 439.73,218.52 422.47,218.89C394.68,219.49 365.95,221.25 338.8,227.6C337.1,228 335.41,228.42 333.74,228.92C333.46,229 331.52,229.4 331.39,229.68C331.39,229.67 334.96,230.9 333.47,231.88C333.8,231.67 333.05,228.07 333,227.72C331.58,216.68 329.83,205.69 327.66,194.77C323.48,173.76 317.83,153.01 310.45,132.89C304.09,115.57 296.55,98.57 287.14,82.69C279.5,69.8 268.08,59.82 253.24,56.34C239.9,53.21 225.44,55.25 213.61,62.25C200.34,70.1 192.8,82.69 188.99,97.3C178.99,135.69 167.72,173.91 154.36,211.27C140.79,249.24 133.71,291.48 140.56,331.61C146.12,364.23 164.43,391.68 190.25,411.95C197.46,417.61 206.31,422.16 211.79,429.68C217.78,437.88 219.17,448.39 220.58,458.19C222.22,469.57 222.46,481.01 222.04,492.49C221.61,504.18 221.18,515.79 223.33,527.36C226.76,545.87 236.42,562.71 248.6,576.84C259.52,589.51 273.1,601.23 288.27,608.49C303.79,615.91 320.46,621 337.09,625.25C356.09,630.1 375.44,633.7 394.95,635.68C431.75,639.42 469.64,636.94 505.77,629.12C523.73,625.23 541.57,620.19 558.53,613.05C573.5,606.75 586.35,597.76 597.99,586.38C611.6,573.08 622.77,556.92 628.64,538.71C635.54,517.28 631.18,495.48 632.41,473.52C633.01,462.78 634.63,452.14 636.9,441.63C638.78,432.73 641.61,425.63 649.78,420.84C658.1,415.96 650.56,402.99 642.21,407.89C623.81,418.69 621.28,439.48 618.76,458.89C617.38,469.53 616.9,480.14 617.33,490.86C617.78,502.01 618.83,513.42 616.74,524.47C610.69,556.61 584.45,585.26 555,598.32C522.07,612.92 485.11,619.34 449.38,621.5C414.01,623.65 379.36,620.15 344.94,611.72C328.65,607.73 312.09,603.11 296.86,596C282.72,589.4 270.48,579.01 260.2,567.36C248.5,554.11 239.56,537.77 237.24,520.07C235.75,508.64 237.03,497.01 237.23,485.54C237.42,474.4 236.47,463.29 234.74,452.28C233.16,442.19 231.24,432.03 225.58,423.33C220.3,415.23 213.06,410.24 205.37,404.69C192.53,395.41 180.62,384.25 171.82,371.01C153.82,343.94 151.16,311.21 154.02,279.59C157.63,239.72 173.73,202.75 185.36,164.81C191.33,145.33 196.97,125.74 202.18,106.04C204.13,98.67 205.69,91.48 210.18,85.15C213.49,80.49 217.96,76.8 223,74.14C232.86,68.93 245.18,68.38 255.47,72.72C269.01,78.44 275.5,91.74 281.82,104.15C299.94,139.77 310.64,179.25 316.7,218.62C318,227.06 316.92,238.99 325.88,243.37C331.21,245.98 336.23,243.64 341.48,242.35C351.76,239.82 362.33,238.37 372.84,237.17C404.74,233.54 437.22,232.51 469.24,235.08C485.15,236.36 500.57,239.05 516.03,242.98C520.5,244.12 524.71,244.02 528.57,241.21C532.59,238.28 533.03,234.26 534.41,230.06C537.46,220.72 540,211.21 542.98,201.85C553.39,169.12 565.67,136.28 586.25,108.43C591.01,101.99 596.31,95.94 601.98,90.29C607.41,84.87 613.08,79.29 620.08,75.95C631.41,70.55 644.97,71.68 655.6,78.13C661.16,81.5 665.68,86.27 668.82,91.95C672.79,99.13 673.56,107.45 675.14,115.37C679.25,135.99 684.23,156.43 689.59,176.75C694.55,195.54 700.62,214.13 704.37,233.21C708.52,254.3 709.89,275.87 708.64,297.32C706.93,326.78 699,356.38 679.11,378.93C668.63,390.81 655.97,400.14 642.21,407.87C633.79,412.62 641.34,425.58 649.78,420.84Z" style="fill:white;fill-rule:nonzero;"/>
            </g>
        </g>
        <path d="M277.57,408.52C277.57,408.52 305.85,393.53 354,408.52" style="fill:none;fill-rule:nonzero;stroke:rgb(255,165,0);stroke-width:26px;"/>
        <path d="M500.99,411.86C500.99,411.86 529.27,396.87 577.42,411.86" style="fill:none;fill-rule:nonzero;stroke:rgb(255,165,0);stroke-width:26px;"/>
        <g transform="matrix(0.9998,-0.0193,0.0193,0.9998,-9.2666,6.1695)">
            <ellipse cx="315.78" cy="484.35" rx="32.06" ry="34.04" style="fill:rgb(255,165,0);stroke:rgb(255,165,0);stroke-width:8px;stroke-linecap:butt;"/>
        </g>
        <g transform="matrix(0.9998,-0.0193,0.0193,0.9998,-9.3007,10.5708)">
            <ellipse cx="544.35" cy="488.32" rx="32.06" ry="34.04" style="fill:rgb(255,165,0);stroke:rgb(255,165,0);stroke-width:8px;stroke-linecap:butt;"/>
        </g>
        <path d="M434.71,533.77L419.65,534.06C409.26,534.26 400.6,525.92 400.4,515.53L400.34,512.16C400.14,501.77 408.48,493.11 418.87,492.91L433.93,492.62C444.32,492.42 452.98,500.76 453.18,511.15L453.24,514.52C453.44,524.9 445.1,533.57 434.71,533.77Z" style="fill:rgb(255,165,0);fill-rule:nonzero;stroke:rgb(255,165,0);stroke-width:16px;stroke-linecap:butt;"/>
        <path d="M227.05,355.87C242.96,315.47 245.58,312.54 289.34,268.4C290.37,267.36 291.02,266 291.16,264.54C293.77,237.44 274.66,188.67 239,149.5C235.67,145.84 229.58,147.27 228.21,152.03C224.52,164.81 222.77,193.47 205.45,234.46C174.65,308.87 193.72,340.42 217.21,358.56C220.57,361.16 225.49,359.83 227.05,355.87Z" style="fill:rgb(255,165,0);fill-rule:nonzero;"/>
        <path d="M634.76,355.87C618.85,315.47 616.23,312.54 572.47,268.4C571.44,267.36 570.79,266 570.65,264.54C568.04,237.44 587.15,188.67 622.81,149.5C626.14,145.84 632.23,147.27 633.6,152.03C637.29,164.81 639.04,193.47 656.36,234.46C687.16,308.87 668.09,340.42 644.6,358.56C641.23,361.16 636.32,359.83 634.76,355.87Z" style="fill:rgb(255,165,0);fill-rule:nonzero;"/>
        <path d="M364.31,564.54C364.31,564.54 426.25,609.27 491.54,564.54" style="fill:none;fill-rule:nonzero;stroke:rgb(255,165,0);stroke-width:26px;"/>
        <path d="M427.93,539.24L427.93,578.12" style="fill:none;fill-rule:nonzero;stroke:rgb(255,165,0);stroke-width:26px;"/>
    </g>
</svg>
