<?xml version="1.0" encoding="utf-8"?>
<!-- Generator: Adobe Illustrator 22.0.1, SVG Export Plug-In . SVG Version: 6.00 Build 0)  -->
<svg version="1.1" id="layer2" xmlns="http://www.w3.org/2000/svg" xmlns:xlink="http://www.w3.org/1999/xlink" x="0px" y="0px"
	 viewBox="0 0 526.6 557.4" style="enable-background:new 0 0 526.6 557.4;" xml:space="preserve">
<style type="text/css">
	.st0{fill-rule:evenodd;clip-rule:evenodd;fill:#0970A4;}
	.st1{fill-rule:evenodd;clip-rule:evenodd;fill:#AC6628;}
	.st2{fill-rule:evenodd;clip-rule:evenodd;fill:#905523;}
	.st3{fill-rule:evenodd;clip-rule:evenodd;fill:#F3AB66;}
	.st4{fill-rule:evenodd;clip-rule:evenodd;fill:#72411A;}
	.st5{fill-rule:evenodd;clip-rule:evenodd;fill:#E09956;}
	.st6{fill-rule:evenodd;clip-rule:evenodd;fill:#1E94D2;}
	.st7{fill-rule:evenodd;clip-rule:evenodd;fill:#016EA5;}
	.st8{fill-rule:evenodd;clip-rule:evenodd;fill:#02486E;}
	.st9{fill-rule:evenodd;clip-rule:evenodd;fill:#42B8EA;}
	.st10{fill-rule:evenodd;clip-rule:evenodd;fill:#FEDDBD;}
	.st11{fill-rule:evenodd;clip-rule:evenodd;fill:#580E0E;}
	.st12{fill-rule:evenodd;clip-rule:evenodd;fill:#311211;}
	.st13{fill-rule:evenodd;clip-rule:evenodd;fill:#F48C9A;}
	.st14{fill-rule:evenodd;clip-rule:evenodd;fill:#FFFFFF;}
	.st15{fill-rule:evenodd;clip-rule:evenodd;fill:#424143;}
	.st16{fill-rule:evenodd;clip-rule:evenodd;fill:#231F20;}
	.st17{fill-rule:evenodd;clip-rule:evenodd;fill:#FACBCE;}
	.st18{fill-rule:evenodd;clip-rule:evenodd;fill:#595A5C;}
	.st19{fill-rule:evenodd;clip-rule:evenodd;fill:url(#SVGID_1_);}
	.st20{fill-rule:evenodd;clip-rule:evenodd;fill:#9A5424;}
	.st21{fill-rule:evenodd;clip-rule:evenodd;fill:#FFCB0B;}
	.st22{fill-rule:evenodd;clip-rule:evenodd;fill:#FDF6B0;}
</style>
<g>
	<g>
		<path class="st0" d="M164.7,400.9c-3-4.9,7.1-20,13.6-20.8c12.3-1.5,13.1,6.4,16.3,15.8c1.7,5.2,0.9,4.9,4,9.5
			c3.5,5.4-13.2,7.4-16,6.2c-6.5-2.9-6.5-1.3-12.9-6c-0.7-0.5-4.3-2.1-4.6-3.9C164.1,401.4,165,401.4,164.7,400.9z"/>
		<path class="st1" d="M206.3,403.6c7.4,5.3,9.8,12.1,7.2,20.3c-22.4,31.5-63,49.1-98.8,45.2c-14,16.4-29.9-0.1-20.8-9
			c-15.7-0.3-11.6-20.1,0.7-18.4c-4.8-14.7,17.6-23.5,23.8-2.2C152.6,447.9,179.2,429.8,206.3,403.6z"/>
		<path class="st2" d="M203.5,436c-23.3,23.9-57.8,36.6-88.8,33.2c-1.5,1.8-3.1,3.2-4.6,4.2c-9.3-8.6-12.4-24-1.3-20.3
			c18.9,6.2,44.9,4.5,59.8-10.1c4.8-4.7,16.4-13.6,23.7-12.3C198.6,431.9,202.1,433.7,203.5,436z"/>
		<path class="st3" d="M111.6,472.3c-13.1,10.9-26.1-3.9-17.7-12.1c-15.7-0.3-11.6-20.1,0.7-18.4c-3.4-10.6,7.3-18.2,15.9-13.5
			c-0.4,0.5-0.8,1-1.2,1.5c-7.5,9.2-3.1,31,2,41.9C111.5,471.9,111.5,472.1,111.6,472.3z"/>
		<path class="st4" d="M207.6,402.1c4,2.9,6.7,6.2,8,10c1.4,3.8,1.3,8-0.1,12.5c-0.1,0.2-0.2,0.5-0.3,0.7
			c-11.3,15.8-27.1,28.2-44.5,36.2c-17.6,8-36.9,11.7-55,9.9c-5.8,6.3-11.9,7.7-16.8,6.5c-2-0.5-3.9-1.5-5.4-2.8
			c-1.5-1.3-2.7-2.9-3.4-4.7c-1.1-2.7-1.2-5.8,0.3-8.5c-4-0.9-6.5-3.2-7.7-6.1c-0.7-1.7-1-3.5-0.8-5.3c0.2-1.8,0.7-3.5,1.6-5.1
			c1.8-3,4.8-5.3,8.7-5.6c-0.7-4.7,1.1-8.8,4.1-11.5c1.5-1.3,3.3-2.3,5.2-2.9c1.9-0.6,4-0.7,6.1-0.3c5,0.9,9.9,4.8,12.5,12.8
			c16.1,3.6,30.5,1.2,44.1-5.2c14.1-6.7,27.4-17.6,40.8-30.5C205.7,401.5,206.8,401.4,207.6,402.1L207.6,402.1z M94.3,443.8
			L94.3,443.8c-3.5-0.4-6.1,1.3-7.5,3.6c-0.6,1-1,2.2-1.1,3.4c-0.1,1.1,0.1,2.3,0.5,3.3c0.9,2.1,3.2,3.8,7.1,4
			c1.4-0.9,3-1.6,4.9-2.3c2-0.7,4.3-1.2,6.9-1.6c1.1-0.2,2.1,0.6,2.3,1.7c0.2,1.1-0.6,2.1-1.7,2.3c-2.3,0.3-4.4,0.8-6.2,1.4
			c-1.7,0.6-3.1,1.3-4.4,2.1c-2.1,2.1-2.4,4.8-1.4,7c0.5,1.2,1.3,2.3,2.3,3.1c1,0.9,2.3,1.6,3.7,1.9c3.7,0.9,8.6-0.4,13.4-5.9
			c0.4-0.5,1.1-0.8,1.8-0.7c17.8,1.9,36.7-1.6,54-9.5c16.8-7.7,31.9-19.5,42.8-34.7c1.1-3.6,1.1-6.8,0.1-9.7c-0.9-2.6-2.7-5-5.3-7.1
			c-13.3,12.7-26.5,23.4-40.6,30.1c-14.7,6.9-30.3,9.5-47.9,5.2l0,0c-0.7-0.2-1.3-0.7-1.5-1.4c-2-7.1-5.9-10.4-9.8-11.1
			c-1.4-0.3-2.9-0.2-4.2,0.2c-1.3,0.4-2.6,1.1-3.6,2c-2.2,2-3.4,5.1-2.6,8.8c2.5,0.5,4.9,1,7,1.6c2.5,0.7,4.6,1.5,6.5,2.3
			c1,0.5,1.4,1.7,1,2.7c-0.5,1-1.7,1.4-2.7,1c-1.7-0.8-3.6-1.5-5.9-2.1C99.9,444.9,97.2,444.3,94.3,443.8z"/>
		<path class="st1" d="M389.8,439c-32.6-12.1-51.6-6.7-57,16.3c8.6,15.7,25.2,25.8,48.3,34.3c8.8,3.2,8.3,14.5,9.9,30.5
			c-24.5,3.8-20,26.2-2.4,18.1c-9.8,20,17.2,23.5,16.2,5.5c12.2,16.6,26.9-0.3,14.2-20.1C402.6,498,424.9,469.8,389.8,439z"/>
		<path class="st2" d="M356.3,432.9c-9.6,1.1-16.4,5.7-20.5,13.8c0.3,0.9,0.8,1.8,1.5,2.6c0.2,0.2,4.2,6.7,5.1,7.2
			c28.5,18.6,47.1,1.1,61.6,53.4c2.1,7.6,2.8,33.4,13.9,39.9c6.2-2.6,9-13.8,1.1-26.2c-15.3-23.8,3.1-50-22.8-78.4
			C380.2,435.7,366.6,432.6,356.3,432.9z"/>
		<path class="st3" d="M377.7,525.8c-8.1,7.5-2.3,18.5,10.9,12.4c-9.8,20,17.2,23.5,16.2,5.5c10.5,14.2,22.8,3.8,18-12
			c-10.1,4.6-22,10.7-30.4,3.7C386.9,530.7,382,527.6,377.7,525.8z"/>
		<path class="st4" d="M388.8,440.7c-15.7-5.8-28.1-7.4-37.1-4.8c-8.5,2.4-14.1,8.8-16.7,19.1c4.1,7.3,10.1,13.3,17.7,18.5
			c8,5.4,17.7,10,29.2,14.2c8.7,3.2,9.5,12.3,10.6,25.4c0.2,2.3,0.4,4.7,0.6,6.7c0.1,1.1-0.7,2.1-1.8,2.2c-8.4,1.3-13,4.9-14.6,8.4
			c-0.6,1.4-0.8,2.7-0.5,3.8c0.2,1.1,0.8,2,1.8,2.6c1.9,1.3,5.1,1.5,9.5-0.4c0.8-0.9,1.6-1.9,2.6-3c1.1-1.2,2.4-2.4,3.7-3.7
			c0.8-0.8,2.1-0.7,2.8,0.1c0.8,0.8,0.7,2.1-0.1,2.8c-1.3,1.3-2.5,2.5-3.6,3.6c-1,1-1.9,2-2.6,2.9c-2.5,5.3-2.2,9.1-0.5,11.4
			c1,1.4,2.5,2.2,4.1,2.5c1.6,0.3,3.4,0.1,4.9-0.7c2.4-1.3,4.2-4.1,4-8.6c-0.2-1.1-0.3-2.5-0.3-4.1c0.1-1.7,0.2-3.5,0.6-5.7
			c0.2-1.1,1.2-1.9,2.3-1.7c1.1,0.2,1.9,1.2,1.7,2.3c-0.3,2-0.5,3.8-0.5,5.2c0,1.2,0,2.1,0.1,2.9c3.1,4.1,6.2,5.7,8.8,5.5
			c1.2-0.1,2.2-0.5,3.1-1.3c1-0.8,1.8-2,2.4-3.4c1.8-4.5,1.2-11.5-3.7-19c-6.9-10.8-7.2-21.8-7.6-33.3
			C409.3,475.4,408.8,458.4,388.8,440.7L388.8,440.7z M350.5,432c9.9-2.8,23.2-1.2,40,5l0,0c0.2,0.1,0.4,0.2,0.6,0.4
			c21.6,18.9,22.1,36.9,22.6,53.8c0.3,10.9,0.6,21.4,6.9,31.3c5.6,8.7,6.2,17.1,4,22.6c-0.8,2.1-2,3.8-3.5,5.1
			c-1.6,1.3-3.4,2.1-5.5,2.2c-2.9,0.2-6.1-1-9.3-3.9c-0.9,3.6-3.1,6.1-5.7,7.5c-2.3,1.2-5.1,1.6-7.6,1.1c-2.5-0.5-4.9-1.9-6.5-4.1
			c-2-2.7-2.8-6.6-1.4-11.5c-4,0.9-7.3,0.3-9.5-1.2c-1.8-1.2-3-3-3.4-5c-0.4-2-0.2-4.2,0.8-6.3c1.9-4.3,7-8.6,15.8-10.5
			c-0.2-1.8-0.3-3.4-0.4-5c-1-11.6-1.7-19.7-8-22c-11.7-4.3-21.8-9-30-14.7c-8.3-5.7-14.8-12.3-19.3-20.4c-0.3-0.4-0.4-1-0.3-1.5
			C333.7,442.6,340.3,435,350.5,432z"/>
		<path class="st1" d="M385,363.2c-1.4,10.3,5.5,14.5,14.3,13.3c34-12.5,50.7-39.8,47.7-81.8c-1.3-17.8-7.3-22.2-8-11.9
			C436.2,325.2,418.7,352.3,385,363.2z"/>
		<path class="st2" d="M405.5,374c29.8-13.4,44.3-39.9,41.4-79.3c-0.4-5.2-1.1-9.2-2.1-12.1c0,18.8-1.4,41.5-14.2,56.5
			c-9.9,11.7-15.8,12.5-23,19.7C401.9,364.6,402,370.1,405.5,374z"/>
		<path class="st4" d="M386.9,364.7c-0.1,1,0,2,0.1,2.9c0.3,2.1,1.2,3.7,2.4,4.9c1.3,1.2,3,1.9,5,2.1c1.3,0.2,2.8,0.2,4.3-0.1
			c16.6-6.1,28.9-15.8,36.7-29.2c7.7-13.2,11-30.1,9.5-50.6c-0.6-7.8-2-12.8-3.5-14.9l0-0.1c-0.2,0.7-0.4,1.7-0.5,3.1
			c-1.4,21.6-6.6,39.3-15.7,53.1C416.3,349.4,403.6,359.1,386.9,364.7L386.9,364.7z M383,368.2c-0.2-1.5-0.2-3.2,0-5.1
			c0.1-0.8,0.6-1.5,1.4-1.7c16.4-5.3,28.8-14.5,37.5-27.6c8.7-13.2,13.7-30.2,15-51.1c0.2-3.1,0.9-5.1,1.9-6.2c1-1.1,2.2-1.4,3.5-1
			c0.9,0.3,1.8,1,2.5,2.2c1.8,2.6,3.5,8.4,4.1,16.9c1.5,21.3-1.9,38.9-10,52.8c-8.3,14.2-21.4,24.5-38.9,31l0,0
			c-0.1,0-0.3,0.1-0.4,0.1c-2,0.3-3.9,0.3-5.6,0.1c-2.8-0.4-5.3-1.4-7.2-3.1C384.8,373.7,383.5,371.3,383,368.2z"/>
		<path class="st1" d="M127.2,109c-9.7,53.2-29.2,76.9-58.6,71.3c-52.5-26-73.9-79.4-64.5-160.1C6.2,2.3,13.5-3,23.7,7
			c12,11.8,24.9,25.5,43.1,35.6C100.4,61.2,121.1,82.3,127.2,109z"/>
		<path class="st2" d="M127.2,109c-9.7,53.2-29.2,77-58.6,71.3C32.8,162.5,11.5,132,4.5,88.8c17,18.7,46,53.5,42.4,27.6
			c-12.9-91,6.8-52.5,32.9-41.2c33,14.2,23.7,0.2,15.4-13.7C112.2,75.4,123.1,90.9,127.2,109z"/>
		<path class="st4" d="M129.2,109.5c-4.9,26.9-12.3,46.4-22.3,58.5c-10.3,12.5-23.1,17.2-38.6,14.3c-0.2,0-0.4-0.1-0.6-0.2
			c-26.6-13.3-45.4-33.4-56.3-60.6C0.5,94.5-2.6,60.7,2.2,20C2.9,14.1,4.1,9.4,5.8,6.2C7.2,3.5,9,1.7,11.1,0.8c2.2-1,4.6-1,7.1,0
			c2.2,0.9,4.5,2.5,6.9,4.8c1.2,1.2,2.5,2.5,3.9,3.8c10.8,10.7,22.8,22.5,38.8,31.4c17,9.4,30.7,19.5,41,30.6
			c10.4,11.2,17.3,23.5,20.5,37.2C129.3,108.9,129.3,109.2,129.2,109.5L129.2,109.5z M103.8,165.4c9.5-11.5,16.6-30.3,21.4-56.4
			c-3.1-12.8-9.6-24.4-19.4-34.9c-10-10.8-23.4-20.6-40-29.8c-16.5-9.2-28.6-21.2-39.7-32.1c-1.3-1.3-2.5-2.5-3.9-3.8
			c-2-2-3.9-3.3-5.6-4c-1.5-0.6-2.9-0.6-4-0.1C11.5,5,10.4,6.2,9.4,8c-1.5,2.8-2.6,7-3.2,12.4c-4.7,40-1.7,73.2,8.9,99.5
			c10.5,26.1,28.6,45.6,54.2,58.4C83.1,180.9,94.6,176.6,103.8,165.4z"/>
		<path class="st3" d="M110.7,122.9c-6.5,35.9-13.3,42-33.1,38.2C36.7,149.4,22.7,114,29.1,59.5c1.4-12.1,6.3-15.7,13.2-8.9
			c8.1,7.9,16.8,17.2,29.1,24C94.1,87.2,106.5,104.8,110.7,122.9z"/>
		<path class="st5" d="M110.7,122.9c-2,11-4,19.2-6.4,25.2c-9,4.4-18.2,7-19.7,11.5c-6.3-2-13-2-19.9-3.4
			C49.9,149,39.8,137.6,34,122.5c5.8-6.4,38.2,9.2,31.8-14.2c-6-21.9,21.2-14.2,39.6,0C107.8,113,109.5,118,110.7,122.9z"/>
		<path class="st4" d="M112.2,123.3c-3.3,18.2-6.7,28.9-11.9,34.7c-5.4,6-12.5,6.7-23,4.7c0,0-0.1,0-0.1,0l0,0
			c-20.9-6-34.9-18-42.9-35.6c-7.9-17.4-9.9-40.1-6.7-67.7c0.5-4,1.3-7.2,2.5-9.4l0,0l0,0c1-1.8,2.2-3.1,3.6-3.7
			c1.5-0.7,3.2-0.7,5,0c1.5,0.6,3.1,1.7,4.7,3.3c0.9,0.8,1.7,1.7,2.6,2.6c7.3,7.2,15.4,15.2,26.1,21.2c11,6.1,19.7,13.4,26.2,21.4
			c7.1,8.7,11.6,18.2,13.8,27.9C112.2,122.8,112.2,123,112.2,123.3L112.2,123.3z M54.8,83.4c10.3,19.4,23.1,33.2,38.3,41.5
			c-9.4-0.2-17.7-2-24.9-5.5c-8.4-4-15.3-10.2-20.7-18.6c-0.3-0.5-1.1-0.7-1.6-0.3c-0.5,0.3-0.7,1.1-0.3,1.6
			c5.6,8.8,12.9,15.3,21.6,19.5c7.4,3.6,16,5.5,25.6,5.7c-8.5,3.3-16.1,4.7-22.8,4.4c-7.7-0.4-14.4-3.1-19.9-8.1
			c-0.5-0.4-1.2-0.4-1.6,0.1c-0.4,0.5-0.4,1.2,0.1,1.6c5.9,5.4,13,8.3,21.3,8.7c8.2,0.4,17.5-1.7,28-6.3c0.3-0.1,0.5-0.3,0.6-0.6
			c0.2-0.1,0.4-0.3,0.6-0.6c0.3-0.6,0-1.3-0.6-1.5c-16.7-7.7-30.5-21.9-41.5-42.7c-0.3-0.6-1-0.8-1.6-0.5
			C54.7,82.1,54.5,82.8,54.8,83.4L54.8,83.4z M97.9,155.9c4.7-5.3,8-15.5,11.1-32.9c-2.2-9.1-6.4-18.1-13.2-26.3
			C89.7,89,81.3,81.9,70.6,76c-11.2-6.2-19.4-14.3-26.8-21.7c-0.9-0.9-1.7-1.7-2.6-2.6c-1.4-1.3-2.6-2.2-3.7-2.6
			c-1-0.4-1.8-0.4-2.6-0.1c-0.8,0.4-1.5,1.2-2.2,2.4l0,0c-1,1.9-1.7,4.7-2.2,8.3c-3.1,27-1.3,49.2,6.4,66
			c7.6,16.7,21,28.2,40.9,33.9C87.2,161.4,93.4,160.9,97.9,155.9z"/>
		<path class="st1" d="M239.1,129.3c21.6,26.5,37.3,48.2,46.9,64.9C357.2,197.2,393.4,147.8,392,46c-0.3-19-6.9-23.1-18.2-13.4
			c-13.4,11.5-29.4,23.4-49.3,31.7C284.4,81.1,255.4,101.1,239.1,129.3z"/>
		<path class="st2" d="M239.1,129.3c21.6,26.5,37.3,48.2,46.9,64.9c29.2,1.2,52.6-6.4,69.8-22.9c-2.7-7.1-6-14.5-6-22.1
			c0-13.9,33-75.8,2.7-75.8c-25.2,0-41.8,21.7-65.2,28.6c-16.3,4.8-22,2.8-23.3-2.4C253.8,108.5,245.5,118.3,239.1,129.3z"/>
		<path class="st4" d="M241.6,129.2c10.5,12.9,19.5,24.6,27.1,35.2c7.6,10.5,13.7,19.8,18.5,28c2.2,0.1,4.4,0.1,6.6,0.1
			c30-0.4,53-11,69-31.7c16.1-20.9,25.2-52.2,26.9-93.9c0.3-6.7,0.4-13.6,0.3-20.7c-0.1-5.7-0.7-9.9-1.9-12.7
			c-0.7-1.7-1.6-2.8-2.6-3.4c-1-0.5-2.2-0.5-3.6-0.1c-1.9,0.6-4.2,2.1-6.8,4.3c-6.8,5.8-14.2,11.7-22.4,17.2
			c-8.3,5.5-17.4,10.6-27.5,14.9c-19.8,8.3-37,17.4-51.1,27.9C260.4,104.3,249.5,115.8,241.6,129.2L241.6,129.2z M265.5,166.6
			c-7.8-10.8-17.1-22.8-27.9-36l0,0c-0.5-0.6-0.6-1.5-0.2-2.3c8.3-14.4,19.8-26.6,34.3-37.4c14.4-10.7,31.8-20,52-28.4
			c9.9-4.1,18.7-9.1,26.8-14.5c8.1-5.4,15.4-11.2,22-16.9c3-2.6,5.8-4.3,8.2-5.1c2.5-0.8,4.7-0.7,6.7,0.3c1.9,1,3.4,2.8,4.4,5.4
			c1.4,3.3,2.1,8,2.2,14.2c0.1,7.2,0,14.2-0.3,20.9c-1.8,42.5-11.1,74.6-27.7,96.2c-16.8,21.8-40.9,32.9-72.2,33.3
			c-2.6,0-5.2,0-7.9-0.1v0c-0.7,0-1.3-0.4-1.7-1C279.5,187,273.2,177.4,265.5,166.6z"/>
		<path class="st3" d="M249.3,140.7c13.8,21.1,13.2,26.7,19,39.7c51.9,7.6,87.1-21.4,93.8-96c1.3-13.9-3.3-17.4-12.3-11.2
			c-10.7,7.4-22.9,20.5-38.2,25.1C281,107.7,263.3,121.3,249.3,140.7z"/>
		<path class="st5" d="M269.9,180.7c29.1,3.8,52.9-4,69.2-25.3c24.2-53.9-47.1-4.7-37.5-33.1c6.6-19.4-43,0.5-39.4,9.4
			c0.2,0.5,4.2,26.9,4.1,28.6C265.7,169.5,267.1,176.1,269.9,180.7z"/>
		<path class="st4" d="M251.1,140.8c9.3,14.3,11.9,21.5,14.6,28.9c1,2.9,2.1,5.9,3.6,9.3c1.9,0.3,3.6,0.5,5.4,0.6
			c22.2,2,41.1-3.3,55.4-16.7c14.4-13.5,24.4-35.1,28.9-65.8c0.6-4.2,1.1-8.4,1.5-12.8c0.4-4.1,0.2-7.3-0.4-9.4
			c-0.4-1.3-0.9-2.2-1.6-2.6c0,0-0.1,0-0.1-0.1c-0.6-0.4-1.5-0.5-2.5-0.3c-1.5,0.3-3.2,1.2-5.3,2.6c-3,2.1-6.2,4.7-9.6,7.4
			c-8.4,6.9-17.9,14.6-29,17.9c-15.1,4.6-27,10.2-36.9,17.1C265.6,123.7,257.9,131.6,251.1,140.8L251.1,140.8z M322.3,106.6
			c0.3-0.6,1-0.7,1.6-0.4c0.6,0.3,0.7,1,0.4,1.6c-5.7,9.9-12.8,18.3-21.4,25.2c-6.3,5.1-13.4,9.3-21.2,12.7
			c9.6-1.4,18.2-3.3,25.9-5.9c10-3.4,18.5-7.8,25.3-13.2c0.5-0.4,1.2-0.3,1.6,0.2c0.4,0.5,0.3,1.2-0.2,1.6c-7,5.6-15.7,10.2-26,13.6
			c-9,3-19.2,5.2-30.7,6.6c8.4,2.5,16.6,3.6,24.6,3.4c9.4-0.2,18.4-2.3,27.1-6.2c0.6-0.3,1.3,0,1.5,0.6c0.3,0.6,0,1.3-0.6,1.5
			c-9,4-18.3,6.2-28,6.4c-9.7,0.2-19.6-1.4-29.9-5c-0.5-0.2-0.8-0.7-0.8-1.2c-0.1-0.5,0.3-1.1,0.8-1.2c11.1-3.7,20.8-9,29.1-15.7
			C309.8,124.4,316.7,116.2,322.3,106.6L322.3,106.6z M262.8,170.7c-2.6-7.4-5.2-14.5-14.8-29.2l0,0c-0.3-0.5-0.3-1.2,0-1.7
			c7.1-9.8,15.2-18.2,25.3-25.3c10.1-7.1,22.4-12.9,37.8-17.5c10.6-3.2,19.7-10.7,28-17.4c3.4-2.8,6.6-5.4,9.8-7.6
			c2.4-1.7,4.6-2.7,6.4-3.1c1.8-0.4,3.4-0.2,4.8,0.7c0,0,0.1,0,0.1,0.1c1.3,0.9,2.3,2.3,2.9,4.3c0.7,2.5,0.9,6,0.5,10.6
			c-0.4,4.5-0.9,8.9-1.5,13c-4.6,31.4-14.9,53.7-29.8,67.6c-15,14-34.7,19.6-57.8,17.5c-2.2-0.2-4.3-0.4-6.4-0.8l0,0
			c-0.5-0.1-1-0.4-1.2-0.9C265.1,177.1,263.9,173.9,262.8,170.7z"/>
		<path class="st1" d="M174.1,345.9c33.6-20.1,70.3-23.1,88.9-14.6c19.7,21,53.9,27.5,103.1,26c37.4-1.2,61.6,21.6,74.3,61.1
			c5.8,17.9,16,22.6,30.3,20.5c11.9-1.8,29,38.2,46.1,46.3c12.3,5.9,9.6,24.4-7,17.1c12.8,15.9-8.6,25.1-16.7,5.9
			c-8.3,16.8-22,2-9.9-15.6c-11.4-12.6-28.4-26.8-48.9-26.8c-34.5-0.1-57.3,1.9-80-12.7C239.7,502.1,174.3,466.3,174.1,345.9z"/>
		<path class="st2" d="M243.8,459.9c-0.1-0.2,2.4-18,13.1-17.5c21.1,1,37.4-10.2,52-23c4.5-4,17.4-12.9,19.7-1.6
			c2.2,10.9-0.1,8.1,4.7,19.7c2.7,6.6-69.8,53.7-89.3,24C243.7,461.1,244.2,460.9,243.8,459.9L243.8,459.9z M254.1,328.3
			c-11.2,5.4-32.3,23.6-54.1,14.6c-1.4-0.6-0.6,29.6-0.4,30.7c5.1,29.1-6.4,41.9,14.1,67.9c10.1,12.7,14.4-18,14.8-24.7
			c1.5-25.8,26.7-46.3,29.9-59.3c3.4-14,4.6-22.3,4-26.6C259.9,329.9,257.1,329,254.1,328.3z"/>
		<path class="st2" d="M280.8,344.5c20.2,10.5,48.6,13.9,85.4,12.7c37.4-1.2,61.6,21.6,74.3,61.1c5.8,17.9,16,22.6,30.3,20.5
			c11.9-1.8,29,38.2,46.1,46.3c4.8,2.3,7.3,6.4,7.6,10.3c-4.2,3.7-8.4,6.5-12.2,7.8c-0.8-0.2-1.6-0.5-2.5-0.9c0.4,0.5,0.7,0.9,1,1.4
			c-5.8,1.5-10-0.9-9.8-8.9c0.3-15.6-8.9-22.6-16.5-32.1c-18.7-23.3-58.9-12.4-58.9-46.1c0-34.1-29.4-58.1-60.7-52.2
			C344.2,368.4,292.5,367.2,280.8,344.5z"/>
		<path class="st3" d="M512,482c1.7,1.3,3.3,2.4,5,3.2c12.3,5.9,9.6,24.4-7,17.1c12.8,15.9-8.6,25.1-16.7,5.9
			c-6.5,13.2-16.3,6.9-14.4-4.8c8.3,2,17,3.9,21.8-2C512.3,487,506.9,491.4,512,482z"/>
		<path class="st3" d="M353.9,453.4c-113.4,48.2-178.5,13.4-179.8-104.4c14.1,3.7,23.9,2.4,42.9-6.7c3.7-1.8-3.3,58.3,1.8,73.8
			c4.9,14.8,7.6,32.9,27.1,39.9c21.4,7.6,81-18.6,79.8-34.3c0.2,0,9.3,14.4,10.7,16C344.5,446.5,349.6,449.5,353.9,453.4z"/>
		<path class="st5" d="M353.9,453.4c-51.7,22-93.4,26.7-123.5,14.1c0.6-0.6,1.1-1.4,1.5-2.4c3.2-8.8,16.3-0.9,25.9,0.9
			c24,4.4,53.2,0.2,73.4-14.1c4.7-3.3,9.2-5.3,13.5-6.2C348.4,448.9,351.3,451,353.9,453.4L353.9,453.4z M197,440.3
			c-13.3-19-21-46.1-22.5-81.1c2.9,0.6,6.5,0.9,10.6,0.4c24.5-3,18.2-10.3,9.5,12.9C184.8,398.6,185.5,419.2,197,440.3z"/>
		<path class="st4" d="M173.1,344.1c16.1-9.6,32.9-15.4,48.1-17.9c17.2-2.8,32.5-1.5,42.7,3.2c0.3,0.1,0.5,0.3,0.7,0.5
			c9.5,10.2,22.7,16.8,39.4,20.8l0,0v0c17,4,37.7,5.3,62.1,4.5c18.8-0.6,34.3,4.7,46.9,15c13.1,10.7,22.8,26.9,29.4,47.4
			c2.7,8.4,6.4,13.7,11.1,16.6c4.6,2.9,10.3,3.5,17,2.5c7.4-1.1,15.3,9.8,24,21.6c7.5,10.2,15.5,21.2,23.3,24.9
			c5.5,2.6,8.4,7.5,8.8,12c0.1,1.7-0.1,3.4-0.7,4.9c-0.6,1.6-1.6,2.9-3,3.9c-2,1.5-4.8,2.2-8.3,1.6c1.7,3.6,1.8,6.8,0.8,9.4
			c-0.8,2.1-2.3,3.7-4.2,4.7c-1.8,1-4,1.4-6.3,1.1c-4.1-0.5-8.5-3.1-11.8-8.6c-2.3,3.3-4.9,4.9-7.4,5.2c-1.9,0.2-3.6-0.3-5.1-1.4
			c-1.4-1-2.5-2.6-3.2-4.5c-1.7-4.5-1.2-11.5,3.3-18.8c-5.4-5.8-12-11.9-19.6-16.6c-8-4.9-17-8.4-26.8-8.4c-3.9,0-7.6,0-11.2,0
			c-28.4,0.1-48.7,0.2-69-12.5c-32.9,13.9-61.8,20.9-86.3,20.9c-19.7,0-36.6-4.4-50.4-13.3c-13.9-8.9-24.7-22.3-32.3-40.1
			c-8.5-20-13-45.7-13-77C172.1,345.1,172.5,344.5,173.1,344.1L173.1,344.1L173.1,344.1z M423.2,463.9c3.6,0,7.3,0,11.2,0
			c10.7,0,20.4,3.7,28.9,9c8.4,5.2,15.6,12,21.4,18.4c0.7,0.7,0.8,1.8,0.3,2.6c-4.6,6.6-5.2,12.7-3.8,16.5c0.4,1.2,1.1,2.1,1.8,2.7
			c0.6,0.5,1.4,0.7,2.2,0.6c1.8-0.2,4-2,5.9-5.8c0-1.3,0-2.7,0-4.2c0-1.8,0.1-3.7,0.3-5.6c0.1-1.1,1-1.9,2.1-1.9
			c1.1,0.1,1.9,1,1.9,2.1c-0.1,2-0.2,3.8-0.3,5.4c0,1.5,0,2.9,0,4.1c2.7,6,6.6,8.8,10.2,9.2c1.5,0.2,2.9-0.1,4-0.7
			c1-0.6,1.8-1.4,2.3-2.6c0.9-2.4,0.2-5.9-3.1-10.1c-1-0.9-1.9-2-2.9-3.1c0,0-0.1-0.1-0.1-0.1c-1-1.2-1.9-2.5-2.9-4
			c-0.6-0.9-0.4-2.2,0.6-2.8c0.9-0.6,2.2-0.4,2.8,0.6c0.9,1.4,1.8,2.6,2.7,3.7c0,0,0.1,0.1,0.1,0.1c0.8,1,1.6,1.9,2.4,2.6
			c4.5,1.9,7.6,1.7,9.4,0.3c0.8-0.5,1.3-1.3,1.7-2.1c0.4-0.9,0.5-2,0.4-3.1c-0.3-3.2-2.4-6.7-6.5-8.7c-8.7-4.1-17.1-15.6-24.8-26.2
			c-7.9-10.8-15.2-20.7-20.2-20c-7.6,1.1-14.2,0.4-19.7-3c-5.5-3.4-9.8-9.4-12.8-18.8c-6.4-19.8-15.7-35.3-28.1-45.6
			c-11.8-9.7-26.5-14.7-44.2-14.1c-24.8,0.8-45.8-0.5-63.2-4.6v0c-17.4-4.1-31.1-11.1-41.2-21.8c-9.5-4.2-23.8-5.4-40-2.7
			c-14.5,2.4-30.4,7.8-45.7,16.8c0.1,30.2,4.5,55,12.7,74.3c7.3,17.1,17.6,29.8,30.8,38.3c13.2,8.5,29.4,12.7,48.3,12.7
			c23.2,0,50.6-6.5,81.8-19.4c-4.9-3-9.3-7-13.1-12c-4.7-6.2-8.6-13.9-11.6-23.2c-0.3-1.1,0.2-2.2,1.3-2.5c1.1-0.3,2.2,0.2,2.5,1.3
			c2.9,8.9,6.5,16.2,11,22C358.5,463,395.7,464,423.2,463.9z"/>
		<path class="st1" d="M231.6,433.9c8.9,2.2,13.6,7.6,14.3,16.2c-9.1,37.6-39.5,68.2-73.7,79.5c-7.2,21.9-30,16.8-24.7-2.2
			c-10.4,6.7-23.4-14.2-4.5-19.7c-8.8-10.8,6.7-22.6,20.4-7.6C198.2,495,216.2,468.3,231.6,433.9z"/>
		<path class="st2" d="M244.1,456.6c-10.8,34.6-39.7,62.4-71.9,73c-1.1,3.3-2.6,6-4.2,8.2c-7.5-3.7-13.3-9.2-15.5-15.1
			c-4.9-13.4-0.9-9.1,17.9-9.8c28.3-1.2,51.3-20.6,63-45.8C241.7,449.4,244.3,450.5,244.1,456.6z"/>
		<path class="st3" d="M174.8,528.7c-0.9,0.3-1.7,0.6-2.6,0.9c-7.2,21.9-30,16.8-24.7-2.2c-10.4,6.7-23.4-14.2-4.5-19.7
			c-7.6-9.3,2.9-19.4,14.7-12.3c-0.5,2.6-1.4,5.7-2.9,9.4C149.5,517.6,164.7,522.8,174.8,528.7z"/>
		<path class="st4" d="M246.6,455.1c-4.8,17-14.1,32.4-25.9,45.1c-13.1,14.2-29.5,25-46.9,31c-3.1,8.5-8.6,13.1-13.9,14.4
			c-2.2,0.5-4.3,0.5-6.3,0c-2-0.5-3.8-1.6-5.3-3.1c-2.6-2.7-4.1-6.8-3.5-12c-2.9,0.5-5.8-0.4-8.2-2.2c-1.8-1.3-3.2-3.2-4.2-5.3
			c-0.9-2.1-1.4-4.5-1-6.8c0.6-3.8,3.1-7.4,8.4-9.6c-1.8-3.2-1.9-6.5-0.7-9.2c0.7-1.6,1.8-3,3.2-4.1c1.4-1.1,3.1-1.8,5-2.2
			c4.8-0.9,10.9,0.8,16.7,6.7c16.4-2.6,28.9-10.2,39.1-21.3c9.7-10.4,17-23.2,24.2-38.3c1.7-3.5,4.4,0.2,2.2,4.5
			c-7,14-14.2,26.6-23.5,36.5c-11.1,11.9-24.6,20.1-42.5,22.7l0,0c-0.6,0.1-1.3-0.1-1.8-0.6c-4.9-5.4-10-6.9-13.8-6.2
			c-1.3,0.2-2.4,0.7-3.3,1.4c-0.9,0.7-1.5,1.5-1.9,2.4c-0.8,1.9-0.5,4.3,1.2,6.8c2.1,0.3,4,0.6,5.8,0.8c2,0.2,3.9,0.3,5.5,0.3
			c1.1,0,2,0.9,2,2c0,1.1-0.9,2-2,2c-1.8,0-3.7-0.1-5.9-0.3c-2-0.2-4.1-0.5-6.4-0.8c-5.1,1.6-7.3,4.3-7.7,7.1
			c-0.2,1.5,0,3.1,0.7,4.6c0.7,1.5,1.7,2.8,2.9,3.7c2,1.5,4.6,2.1,7,0.7c0.9-1.2,2.2-2.3,3.8-3.5c1.7-1.2,3.7-2.3,6.2-3.4
			c1-0.5,2.2,0,2.7,1c0.5,1,0,2.2-1,2.7c-2.2,1-4,2-5.5,3c-1.2,0.9-2.2,1.7-2.9,2.6c-1.4,5.3-0.4,9.2,1.8,11.5c1,1,2.1,1.6,3.4,2
			c1.3,0.4,2.8,0.4,4.3,0c4.3-1,8.8-5,11.3-12.7c0.2-0.6,0.7-1.1,1.3-1.3c17.1-5.7,33.3-16.3,46.2-30.2
			c11.3-12.2,20.1-26.9,24.9-43.2C243.7,450.8,247.4,452.2,246.6,455.1z"/>
		<path class="st6" d="M160.8,402.8c4.7,13.6,13.6,26.2,19.6,26.7c13.1,1.1,49.8-10.9,84.6-41.7c25-22.1,37.5-53,32.3-59.6
			c-3.8-4.8-7.6-9.8-14.2-14.9c-5.8,28.1-30.2,61.1-72.7,83.2c-9.6,5-25.7,12-37.2,9.9C166.8,407.4,160.8,399.9,160.8,402.8z"/>
		<path class="st7" d="M161.2,403.8c4.8,13.1,13.4,25.1,19.3,25.6c13.1,1.1,49.8-10.9,84.6-41.7c25-22.1,37.5-53,32.3-59.6
			c-1.4-1.7-2.7-3.5-4.2-5.3c-1.5,4.7-2.5,12.8-5.7,20.4c-11.9,27.9-58.3,78.1-90,75c-9.7-0.9-11.2-6.5-12.4-12.3
			c-2.9,0.6-5.8,0.8-8.5,0.7c-1.4,0.1-3.1,0.1-5.5-0.3c-0.4,0-0.8-0.1-1.2-0.2c-1.6-0.3-3.4-0.7-5.5-1.3
			C163.2,404.5,162.1,404.2,161.2,403.8z"/>
		<path class="st8" d="M163.2,404.8c2.2,5.8,5.2,11.3,8.3,15.5c3.3,4.5,6.6,7.4,9,7.6c7.2,0.6,22-3,39.7-11.7
			c13.6-6.7,28.8-16.4,43.7-29.6c11.2-9.9,19.8-21.6,25.5-32c6.6-12.2,9.1-22.3,6.6-25.5l-0.6-0.7c-3.2-4.1-6.4-8.2-11.5-12.3
			c-3.5,14.4-11.6,29.8-24.3,44.4c-12.1,13.8-28.3,26.9-48.6,37.4c-5.7,3-13.5,6.6-21.5,8.7c-5.7,1.5-11.5,2.3-16.5,1.4
			C169.2,408.4,165.7,406.3,163.2,404.8L163.2,404.8z M169,422.1c-3.7-5.1-7.3-11.9-9.7-18.9l0,0c-0.1-0.2-0.1-0.3-0.1-0.5
			c0-1.6,0.7-2.2,2-2.2c0.9,0,2,0.6,3.3,1.5c2.1,1.3,5.3,3.3,8.4,2.9c0.2,0,0.4,0,0.5,0c4.6,0.8,10,0.1,15.4-1.3
			c7.6-2,15.3-5.6,20.8-8.4c20-10.4,35.9-23.2,47.7-36.7c13.1-14.9,21.1-30.8,24.1-45.3c0-0.2,0.1-0.5,0.3-0.7
			c0.5-0.7,1.5-0.8,2.2-0.3c6.5,4.9,10.3,9.7,13.9,14.4l0.6,0.7c3.2,4.1,0.8,15.6-6.4,28.9c-5.8,10.7-14.7,22.7-26.2,32.8
			c-15.1,13.4-30.6,23.3-44.4,30.1c-18.3,9-33.7,12.6-41.3,12C176.9,430.7,172.8,427.3,169,422.1z"/>
		<path class="st9" d="M257.8,319.3c2.7,2.3,4,3.1,5.9,4.5c12.3-8.3,17.9-6.1,13.5,3.9c-4.5,10.3-19.6,27.7-44.6,48.5
			c-35.9,29.7-81,34.2-55.9,9.5c-0.3-3.2-0.6-5.5-0.9-9.7c-23.9,20.2-15.9,31.9-5.6,35c16.4,4.9,48.4-13.3,70.2-31
			c30.7-24.9,50.2-52.9,45-64C281.1,308.5,270.4,309.1,257.8,319.3z"/>
		<path class="st8" d="M260.2,319.4c1.2,1,2.2,1.6,3.1,2.3l0.4,0.2c4.4-2.9,8-4.4,10.6-4.7c1.6-0.2,2.9,0.1,3.9,0.7
			c1.1,0.7,1.7,1.8,1.9,3.3c0.2,1.8-0.3,4.2-1.5,7.1c-2.4,5.5-7.8,13-15.9,21.9c-7.4,8-17.1,17.2-29.1,27.2
			c-18.8,15.5-40.1,24.3-52.8,25.6c-3.7,0.4-6.8,0.2-9-0.7c-2.6-1-4-2.8-3.9-5.5c0.1-2.9,2.3-6.8,7.2-11.8c-0.1-0.9-0.2-1.8-0.3-2.8
			c-0.1-1-0.2-2-0.3-3.2c-7.2,6.5-10.9,11.9-12.2,16.4c-0.6,2.1-0.7,4-0.4,5.7c0.3,1.6,1,3,2,4.2c1.7,2,4.1,3.4,6.7,4.1
			c7,2.1,17.2-0.3,28.3-5.2c13.7-6.1,28.6-15.8,40.5-25.4c15.2-12.3,27.6-25.4,35.6-36.8c7.8-11.1,11.4-20.4,9-25.4
			c-0.3-0.4-0.5-0.8-0.8-1.2c-1.6-2-3.9-3-6.7-3c-3.1,0-6.7,1-10.8,3.3C263.8,316.8,262,318,260.2,319.4L260.2,319.4z M261.6,324.2
			c-1.4-1-2.7-1.8-4.8-3.7c-0.1-0.1-0.2-0.2-0.3-0.2c-0.5-0.7-0.4-1.6,0.2-2.2c2.5-2,4.9-3.7,7.3-5c4.6-2.5,8.7-3.8,12.3-3.7
			c3.8,0,6.9,1.5,9.1,4.2c0.4,0.5,0.8,1.1,1.1,1.7c0,0.1,0.1,0.1,0.1,0.2c2.9,6.1-0.8,16.5-9.3,28.5c-8.2,11.6-20.8,24.9-36.2,37.4
			c-12,9.8-27.2,19.7-41.2,25.9c-11.7,5.2-22.6,7.7-30.4,5.4c-3.2-0.9-6.1-2.6-8.2-5.1c-1.3-1.6-2.3-3.4-2.7-5.6
			c-0.4-2.1-0.3-4.5,0.5-7.1c1.6-5.4,6.2-12.1,15.4-19.8c0.2-0.2,0.6-0.4,0.9-0.4c0.9-0.1,1.6,0.6,1.7,1.4c0.2,2.6,0.4,4.4,0.6,6.1
			c0.1,1.1,0.2,2.1,0.4,3.5c0.1,0.5-0.1,1-0.4,1.3c-4.6,4.6-6.7,8-6.8,10.2c0,1.2,0.7,2,1.9,2.5c1.7,0.7,4.3,0.8,7.5,0.5
			c12.3-1.3,32.9-9.8,51.2-25c11.9-9.8,21.5-18.9,28.8-26.9c7.9-8.6,13.1-15.8,15.4-21c1.1-2.4,1.5-4.3,1.3-5.5
			c-0.1-0.5-0.3-0.9-0.6-1.1c-0.4-0.3-1-0.3-1.9-0.2c-2.3,0.3-5.7,1.8-10.1,4.7c-0.5,0.4-1.3,0.5-1.8,0
			C262.4,324.8,262,324.5,261.6,324.2z"/>
		<path class="st1" d="M150.9,362.8c102.6,8.6,167.5-26.6,162.1-124c-4.3-76.9-35.1-131.7-93.1-144.8c-12.5-2.8-24.4-4.6-35.6-5.4
			c3.4-9,11.9-13.9,10.6-15.8c-1.7-2.5-14.8,0.6-24.7,10.5c-8.8-17.7-28-17.3-28.7-14.9c-0.6,2,14.9,6.3,20.4,20.1
			c-48.7,2.9-91.8,32.3-99.2,80.9c-9.1,59.6-9.2,70.4-17.4,95.8C28.9,316.2,82.1,357,150.9,362.8z"/>
		<path class="st2" d="M292.8,320.9c14.9-19.8,22.1-46.9,20.2-82.1c-4.3-76.9-35.1-131.7-93.1-144.8c-11.9-2.7-23.3-4.4-34.1-5.3
			c1.3,1.2,4.4,4.8,12,5.5c49,4.6,73.3,45,78,50.3c8.4,9.6,43.5,104.6,24.8,106c-17.5,1.4-35.6-2.7-56.2-2.7
			c-25.8,0-56.9,20.1-81.9,7c15.6,23.4,85,68.2,113.9,68C282.3,322.8,287.7,322.1,292.8,320.9L292.8,320.9z M90.4,146.6
			c-2.1,1.1-7.8,6.3-4.5,10c7.2,7.9,8.5,4.9,19.7,0.1c10-4.3,21.6-15.5,4.6-19.8c-5.9-1.5-15.1,1.9-17.9,7.5
			C92.3,144.5,90.4,146.6,90.4,146.6L90.4,146.6z M222.8,140.7c0,0,1.1,0.6,1.2,0.6c7.4,1.5,25.2,8.5,27.6,15.4
			c3,8.6-5.1,7.9-10.1,7.2c-4.4-0.6-22.6-12-26.3-15.2C209.5,143.7,216.5,136.6,222.8,140.7L222.8,140.7z M119,98.6
			c-0.6,0.8-1.1,1.8-2,2.6c-35.2,32.9-44.7,38.3-49.2,108.3c-1.6,25.4-18.7,52.3,41.5,44.4c41.1-5.4,9.1,48.5-65.8,41.3
			c-2.1-9.5-1.7-19.6,1.7-30.1c8.2-25.5,8.3-36.3,17.4-95.8C67.9,135.9,89.9,111.5,119,98.6z"/>
		<path class="st3" d="M150.9,362.8c82.4,6.9,140.4-14.5,157.3-73.5c-25.2-46-66.7-19.5-97.4-27.9c-40.1-11-23.6-45.8-49.5-49.6
			c-12.9-1.9-16.1,3.5-21.3,11.8c-3.4,5.6-7.1,12.2-12.6,18.9C109,264.5,86.5,254.6,59.8,256c-5.1,0.3-9,0.8-12,1.5
			c-0.7,2.4-1.5,5-2.4,7.7C28.9,316.2,82.1,357,150.9,362.8z"/>
		<path class="st5" d="M150.9,362.8c82.4,6.9,140.4-14.5,157.3-73.5c-5.4-9.9-11.7-16.5-18.4-20.7c-4.6,5.7-6.4,14.9-10.2,24.3
			c-4.8,11.9-19.4,21.7-5.3,20c19-2.3-23.5,29-25.3,30.2c-17.8,11.6-63.5,18.6-85.1,16.8c-29.8-2.4-95.5-17.3-111.5-69.4
			c-2.9-9.4-6.1-14.7-9.2-16.9C34.8,320.5,85.9,357.3,150.9,362.8z"/>
		<path class="st10" d="M122.2,296.5c-10.8-9.2-11.1-22.3-0.8-31.7c2.9-2.7,24.2-15.5,26.9-13.3c14.8,11.9,23.7,24.8,44.1,29.2
			c21.8,4.7-4.8,33.6-4.4,46.4c1.4,39.8-45.2,31-48-4.4C138.7,306.3,122.2,296.5,122.2,296.5z"/>
		<path class="st11" d="M149.1,293.5c8.9,6.1,18.6,8,29.3,5.7c5.1,44.8-17,54-24.6,29.5c-2.6-8.3-7.9-18.1-14.8-29.7
			C143.4,299.2,146.8,297.4,149.1,293.5z"/>
		<path class="st12" d="M163.5,299.5c4.8,0.9,9.8,0.8,15-0.4c1.6,14.1,0.5,24.7-2,31.8c-8.6-0.9-15.4-9.8-15.4-20.7
			C161,306.3,161.9,302.7,163.5,299.5z"/>
		<path class="st13" d="M154.2,327.7c2.6,9.6,6.4,14.3,11.6,14.2c6.9-0.5,11.5-8,13.8-22.5c-2.1-7.9-9.9-8.6-13.4-4
			C160.1,310.8,153.7,314.9,154.2,327.7z"/>
		<path class="st4" d="M151,360.8c15.4,1.3,29.9,1.6,43.4,0.8c33.9-1.9,61.7-10.3,81.6-26.3c19.9-15.9,32-39.4,34.7-71.5
			c0.7-7.8,0.8-16.1,0.3-24.9c-2.2-39-11.2-72.2-27.2-97c-15.1-23.6-36.6-39.6-64.3-45.9c-6.1-1.4-12.2-2.5-18.1-3.4
			c-5.9-0.9-11.7-1.5-17.2-1.9c-1.1-0.1-1.9-1-1.9-2.1c0-0.2,0.1-0.4,0.1-0.6l0,0c2.1-5.4,5.7-9.4,8.3-12.2c1.2-1.3,2.7-1.4,2.5-1.8
			c-0.5-0.3-2.2-0.1-4.6,0.6c-3.1,0.8-7,2.5-10.8,5.1c-2.1,1.4-4.2,3.1-6.2,5c-0.8,0.8-2.1,0.8-2.8,0c-0.2-0.2-0.3-0.3-0.4-0.5l0,0
			c-4-8-10.2-12-15.6-13.8c-2.4-0.8-4.6-1.1-6.5-1.2c-0.4,0-0.8,0-1.2,0c0.3,0,0.5,0.1,0.8,0.3c5,3,13.7,8.2,17.7,18.2
			c0.4,1-0.1,2.2-1.1,2.6c-0.2,0.1-0.4,0.1-0.6,0.1c-24.8,1.5-48.1,9.9-65.8,24.4c-16.4,13.4-28,32-31.5,54.9
			c-2.3,15-4,26.6-5.4,36.3c-4.3,29.7-5.9,40.6-12.1,59.9c-1.5,4.5-2.4,9-2.7,13.3c-1.4,16.5,4.9,31.5,16.6,44.1
			c11.8,12.7,29.2,23,49.8,29.6C123.3,356.9,136.8,359.6,151,360.8L151,360.8z M134.6,278.7c0.4-0.4,1.1-0.3,1.4,0.1
			c0.4,0.4,0.3,1.1-0.1,1.4c-0.4,0.4-1.1,0.3-1.4-0.1C134.1,279.7,134.1,279.1,134.6,278.7L134.6,278.7z M126.1,284.9
			c0.4-0.4,1.1-0.3,1.4,0.1c0.4,0.4,0.3,1.1-0.1,1.4c-0.4,0.4-1.1,0.3-1.4-0.1C125.7,285.9,125.7,285.3,126.1,284.9L126.1,284.9z
			 M133.8,287.8c0.4-0.4,1.1-0.3,1.4,0.1c0.4,0.4,0.3,1.1-0.1,1.4c-0.4,0.4-1.1,0.3-1.4-0.1C133.4,288.9,133.4,288.2,133.8,287.8
			L133.8,287.8z M152.3,279.9c0.6,0,1,0.5,1,1c0,0.6-0.5,1-1,1c-0.6,0-1-0.5-1-1C151.3,280.4,151.7,279.9,152.3,279.9L152.3,279.9z
			 M156.1,287.2c0.6,0,1,0.5,1,1c0,0.6-0.5,1-1,1c-0.6,0-1-0.5-1-1C155,287.7,155.5,287.2,156.1,287.2L156.1,287.2z M162.7,280.9
			c0.6,0,1,0.5,1,1c0,0.6-0.5,1-1,1c-0.6,0-1-0.5-1-1C161.7,281.4,162.1,280.9,162.7,280.9L162.7,280.9z M124.1,249.8
			c-0.9,0.7-2.1,0.5-2.8-0.3c-0.7-0.9-0.5-2.1,0.3-2.8c5.8-4.6,11-11.1,14.4-19.1c2.9-6.9,4.4-15,3.8-24.1c-0.1-1.1,0.7-2.1,1.9-2.2
			c1.1-0.1,2.1,0.7,2.2,1.9c0.7,9.8-0.9,18.5-4.1,26C136,237.8,130.4,244.8,124.1,249.8L124.1,249.8z M139.3,269.8c0-1.1,0.9-2,2-2
			c1.1,0,2,0.9,2,2c0,12.3,3.7,20.5,11.2,24.6c5.6,3.1,13.5,4,23.5,2.8c0.1,0,0.1,0,0.2,0l0.1,0c3.5-0.5,7.4-1.2,11.5-2.2
			c1.1-0.3,2.2,0.4,2.4,1.5c0.3,1.1-0.4,2.2-1.5,2.4c-3.5,0.9-6.9,1.6-10.1,2c1.8,18.3-1,30.7-5.4,37.2c-1.8,2.7-4,4.4-6.2,5.3
			c-2.4,0.9-4.9,0.8-7.3-0.4c-3.9-1.8-7.5-6.4-9.7-13.7c-1.3-4-3.2-8.4-5.7-13.3c-2.3-4.6-5.1-9.5-8.2-14.7
			c-1.1,0.2-2.2,0.4-3.3,0.4c-5.4,0.2-10.8-1.6-16.2-5.5c-0.9-0.7-1.1-1.9-0.4-2.8c0.7-0.9,1.9-1.1,2.8-0.4
			c4.6,3.4,9.2,4.9,13.7,4.7c3.9-0.2,7.9-1.7,11.9-4.6C141.7,287.7,139.3,279.9,139.3,269.8L139.3,269.8z M176.6,301.4
			c1.7,17.2-0.8,28.6-4.8,34.4c-1.3,2-2.8,3.2-4.3,3.8c-1.4,0.5-2.8,0.4-4.2-0.2c-2.9-1.4-5.7-5.2-7.6-11.3
			c-1.3-4.3-3.3-8.9-5.9-13.9c-2.2-4.3-4.9-9-7.8-14.1c2.5-1,4.9-2.4,7.4-4.3c1,0.8,2.1,1.5,3.2,2.1
			C158.6,301.3,166.6,302.4,176.6,301.4L176.6,301.4z M194.6,365.6c-13.7,0.8-28.4,0.5-43.9-0.8c-14.5-1.2-28.4-4-41-8.1
			c-21.3-6.9-39.2-17.5-51.5-30.7c-12.4-13.4-19.1-29.5-17.6-47.2c0.4-4.6,1.3-9.4,2.9-14.2c6.1-19,7.7-29.8,11.9-59.2
			c1.4-9.9,3.1-21.8,5.4-36.3c3.7-24,15.8-43.4,33-57.4c17.7-14.4,40.6-23.1,65.2-25c-3.9-7.1-10.8-11.3-14.9-13.7
			c-3.1-1.9-5.1-3.1-4.4-5.2c0.2-0.7,0.8-1.3,1.6-1.7c1.1-0.5,3-0.9,5.3-0.8c2.2,0.1,4.8,0.5,7.6,1.4c5.7,1.9,12.1,5.9,16.7,13.5
			c1.6-1.4,3.2-2.6,4.8-3.7c4.3-2.9,8.6-4.7,12-5.6c3.8-1,6.9-0.8,8.3,0.3c0.1,0.1,0.2,0.1,0.2,0.2c0.1,0.1,0.3,0.3,0.4,0.5l0,0l0,0
			c1.4,2.2-0.3,4-2.9,6.8c-1.9,2.1-4.5,4.8-6.4,8.3c4.8,0.4,9.7,1,14.7,1.7c5.9,0.9,12.1,2.1,18.4,3.5c28.9,6.5,51.1,23.2,66.8,47.6
			c16.4,25.4,25.6,59.3,27.8,99c0.5,9,0.4,17.5-0.3,25.5c-2.8,33.2-15.4,57.7-36.2,74.3C257.9,355,229.4,363.7,194.6,365.6z"/>
		<path class="st14" d="M220.5,196.2c-13.7-0.7-25.6,10.8-26.5,25.6c-0.9,14.8,9.5,27.3,23.2,27.9c13.7,0.7,26.9-10.5,27.8-25.3
			C245.9,209.6,234.3,196.8,220.5,196.2z"/>
		<path class="st14" d="M107.4,192.4c-12.4-0.6-23.1,10.1-23.8,23.9c-0.8,13.9,8.6,25.6,21,26.3c12.4,0.7,24.2-9.8,25-23.7
			C130.4,205.1,119.8,193.1,107.4,192.4z"/>
		<path class="st3" d="M94.4,137.7c-8,5-11.5,13.4-9.3,17c2.2,3.5,4.2-2.7,17.8-7.4s14-6.2,11.8-9.8
			C112.4,133.9,102.4,132.7,94.4,137.7z"/>
		<path class="st5" d="M85.4,147.9c-1.1,2.7-1.2,5.2-0.3,6.7c2.2,3.5,4.2-2.7,17.8-7.4c10.1-3.5,12.9-5.3,12.8-7.4
			C108.4,139.3,92.5,147.2,85.4,147.9z"/>
		<path class="st4" d="M95.2,139c-3.5,2.2-6.1,5.1-7.6,7.9c-1.6,2.9-2.1,5.6-1.2,6.9c0.2,0.3,0.5,0.2,1.1-0.2c0.5-0.3,0.9-0.6,1.5-1
			c2.5-1.8,6.5-4.5,13.4-6.9c6.5-2.3,9.9-3.7,11.2-5c0.7-0.7,0.4-1.4-0.3-2.5l0,0c-0.8-1.3-3.4-2.2-6.7-2.3
			C103.1,135.8,99,136.7,95.2,139L95.2,139L95.2,139z M84.9,145.4c1.8-3.2,4.7-6.5,8.7-9l0,0c4.3-2.7,9.1-3.7,13.1-3.5
			c4.2,0.1,7.7,1.6,9.1,3.7c0,0.1,0.1,0.1,0.1,0.2c1.5,2.4,2,4.2-0.3,6.3c-1.7,1.6-5.3,3.2-12.3,5.6c-6.4,2.2-10.2,4.8-12.6,6.5
			c-0.6,0.4-1.2,0.8-1.6,1.1c-2.4,1.5-3.8,1.7-5.3-0.8C82.3,153.1,82.7,149.3,84.9,145.4z"/>
		<path class="st3" d="M238.8,140c9.4,4.8,15.3,13.2,11.7,17.9c-3.6,4.6-3.5-1.6-18.1-7.1c-14.6-5.4-17.1-8.4-14.6-12.1
			C220.2,134.9,229.4,135.2,238.8,140z"/>
		<path class="st5" d="M250.1,158.3c-3.3,3.8-3.6-2.3-17.7-7.5c-14.2-5.3-16.9-8.2-14.8-11.8C228.8,140.4,244.5,150.4,250.1,158.3z"
			/>
		<path class="st4" d="M239.5,138.6c2.1,1,4,2.3,5.7,3.6c3,2.3,5.3,5,6.6,7.6c1.5,2.8,1.8,5.6,0.6,7.9c-0.2,0.4-0.4,0.7-0.7,1.1
			c-2.9,3.7-4,2.8-7.6,0.1c-2.2-1.7-5.7-4.3-12.3-6.7c-7.5-2.8-11.9-5-14.2-7c-2.9-2.5-2.9-4.8-1.2-7.5c1.6-2.4,5-3.5,9.4-3.2
			C229.9,134.8,234.6,136.2,239.5,138.6L239.5,138.6z M243.2,144.7c-1.5-1.2-3.3-2.3-5.2-3.3c-4.5-2.3-8.8-3.5-12.3-3.7
			c-3.3-0.2-5.7,0.4-6.7,1.8c-0.8,1.2-0.7,2.2,0.6,3.4c2,1.8,6.1,3.8,13.2,6.4c7,2.6,10.7,5.4,13.1,7.2c1.7,1.3,2.3,1.7,3.3,0.4
			c0.1-0.2,0.3-0.4,0.4-0.6c0.7-1.4,0.4-3.2-0.6-5.1C247.9,149,245.9,146.7,243.2,144.7z"/>
		<path class="st15" d="M146.1,244.8c-15.3-0.8-28.1,2.6-28.4,9.3c-0.3,6.7,9.4,19.8,24.7,20.6c15.3,0.8,30.3-11.1,30.7-17.8
			C173.3,250.2,161.3,245.6,146.1,244.8z"/>
		<path class="st16" d="M146,246.8L146,246.8L146,246.8c-7.4-0.4-14.2,0.3-19.1,1.8c-4.3,1.3-7,3.2-7.2,5.5h0v0c0,0.1,0,0.2,0,0.2
			c-0.1,3.2,2.7,8.3,7.5,12.3c3.9,3.2,9.1,5.8,15.3,6.1c6.5,0.3,12.9-1.8,18.1-4.8c6.1-3.5,10.3-8.1,10.4-11.1l0,0
			c0.1-2.3-2.2-4.4-6-6.1C160.3,248.5,153.6,247.2,146,246.8L146,246.8z M146.2,242.8L146.2,242.8c8.1,0.4,15.3,1.9,20.4,4.2
			c5.4,2.4,8.6,5.8,8.4,10l0,0.1c-0.2,4.3-5.2,10.2-12.4,14.4c-5.8,3.3-13,5.7-20.3,5.3c-7.2-0.4-13.2-3.3-17.6-7
			c-5.8-4.8-9.1-11.3-8.9-15.5l0-0.1v0h0l0,0l0-0.1c0.2-4.3,4-7.4,10-9.3C131,243.1,138.3,242.4,146.2,242.8L146.2,242.8z"/>
		<path class="st16" d="M224.3,206.5c11.3,0,20.5,9.2,20.5,20.5c0,11.3-9.2,20.5-20.5,20.5c-11.3,0-20.5-9.2-20.5-20.5
			C203.8,215.6,213,206.5,224.3,206.5z"/>
		<path class="st14" d="M214.1,203.6c4.7,0,8.5,3.8,8.5,8.5c0,4.7-3.8,8.5-8.5,8.5c-4.7,0-8.5-3.8-8.5-8.5
			C205.5,207.4,209.4,203.6,214.1,203.6z"/>
		<path class="st14" d="M223.9,243c-7.9,3.2-22-16.2-12.4-16.6c0,0,2.9,5.7,7,9.7c3.3,3.2,8.2,4.9,7.3,5.7
			C225.3,242.3,224.4,242.7,223.9,243z"/>
		<path class="st16" d="M109.6,203.9c10,0,18.1,8.1,18.1,18.1c0,10-8.1,18.1-18.1,18.1c-10,0-18.1-8.1-18.1-18.1
			C91.6,212,99.6,203.9,109.6,203.9z"/>
		<circle class="st14" cx="99.7" cy="208.9" r="7.5"/>
		<path class="st14" d="M110.9,235.8c-7,2.8-19.4-14.3-10.9-14.7c0,0,2.5,5,6.2,8.6c2.9,2.8,7.2,4.3,6.4,5
			C112.2,235.2,111.4,235.6,110.9,235.8z"/>
		<path class="st4" d="M175.7,390.2c-1.1-6.4-2-13.2-2.6-20.3c1.1-0.2,2.5-0.3,4-0.3c0.6,7.1,1.5,13.8,2.6,20.2
			C178.4,390.1,176.9,390.1,175.7,390.2z"/>
		<path class="st17" d="M169.4,326c-0.3-2.5-1.1-10.2,3.1-10c3.5,0.2-0.8,14.6-3,10.1C169.5,326.1,169.4,326.1,169.4,326z"/>
		<path class="st17" d="M162,328.1c-6.2-5.6-1.2-19.8,2.6-2.7C165.1,327.3,163.1,329,162,328.1z"/>
		<path class="st4" d="M220.4,197.7c-6.4-0.3-12.4,2.2-16.9,6.6c-4.5,4.4-7.6,10.6-8,17.5l0,0l0,0.4l0,0c-0.3,6.8,1.9,13.1,5.8,17.8
			c3.9,4.6,9.4,7.7,15.6,8.1l0.3,0l0,0v0c6.5,0.3,13-2.3,17.8-6.7c4.7-4.3,7.9-10.3,8.4-17.2v0l0,0l0-0.4c0.3-6.8-2.2-13.2-6.4-17.9
			c-4.2-4.7-10-7.9-16.3-8.2l0,0L220.4,197.7L220.4,197.7L220.4,197.7z M201.4,202.1c5.1-4.9,11.9-7.8,19.2-7.4l0.1,0l0.3,0l0,0
			c7.2,0.4,13.7,4,18.4,9.3c4.7,5.3,7.5,12.4,7.2,20.1l0,0.4h0c-0.5,7.7-4.1,14.5-9.4,19.3c-5.4,4.9-12.6,7.8-20,7.5l0,0
			c-0.2,0-0.3,0-0.4,0c-7.2-0.4-13.4-3.9-17.8-9.2c-4.4-5.2-6.9-12.3-6.5-19.9l0,0l0-0.4l0-0.1C193,213.9,196.3,207,201.4,202.1z"/>
		<path class="st4" d="M107.3,194c-5.7-0.3-11.1,2-15.1,6.1c-4.1,4.1-6.7,9.9-7.1,16.4l0,0l0,0.1c-0.3,6.5,1.7,12.5,5.3,16.9
			c3.5,4.4,8.6,7.3,14.3,7.6l0,0l0,0c5.8,0.3,11.6-2.1,15.9-6.2c4.2-4,7.1-9.6,7.5-16.1l0-0.1l0,0c0.3-6.5-2-12.5-5.8-17
			C118.4,197.2,113.1,194.3,107.3,194L107.3,194L107.3,194L107.3,194z M90,197.8c4.6-4.6,10.8-7.3,17.4-7l0.1,0l0,0
			c6.6,0.4,12.7,3.7,17,8.8c4.3,5.1,6.9,11.9,6.5,19.2l0,0l0,0.1c-0.4,7.2-3.7,13.6-8.4,18.1c-4.9,4.7-11.5,7.4-18.2,7l-0.1,0l0,0
			c-6.6-0.4-12.4-3.7-16.5-8.7c-4-5-6.3-11.8-5.9-19l0-0.1l0,0C82.4,208.9,85.5,202.4,90,197.8z"/>
		<path class="st16" d="M126.5,259.9c3.3,0.3,6,2.3,13.2,2.3c3.8,0,18.7-2.4,19.7-1.7c6.4,4.2-17.7,11.7-24.9,8.3
			C132.8,268,121.2,259.5,126.5,259.9z"/>
		<path class="st18" d="M137.5,250.3c8.8-0.7,23.2-0.9,18.6,3c-2.1,1.8-17.3,2.6-23.6,1.3C123.2,252.8,136.6,250.4,137.5,250.3z"/>
	</g>
	<g>
		<linearGradient id="SVGID_1_" gradientUnits="userSpaceOnUse" x1="178.6001" y1="417.4999" x2="191.0298" y2="467.3526">
			<stop  offset="0" style="stop-color:#FEBC1B"/>
			<stop  offset="1" style="stop-color:#E88224"/>
		</linearGradient>
		<path class="st19" d="M181,420.7c8.9-1.6,17.8,6.7,19.9,18.5c2.1,11.8-0.9,23.6-15.4,25.4c-9,1.1-14.7-7.9-16.8-19.7
			C166.6,433.1,172.1,422.3,181,420.7z"/>
		<path class="st20" d="M180.7,419.4c4.9-0.9,9.7,0.9,13.6,4.6c3.8,3.5,6.7,8.8,7.8,15c0.1,0.7,0.2,1.5,0.3,2.3
			c0.7,5.6,0.1,11-2.2,15.4c-2.4,4.5-6.5,7.8-13.1,9l0,0c-0.5,0.1-1,0.2-1.5,0.2c-4.7,0.6-8.6-1.3-11.7-4.9
			c-3.2-3.8-5.4-9.4-6.6-15.8c-1.1-6.2-0.2-12.1,2.1-16.8C171.9,423.6,175.9,420.3,180.7,419.4L180.7,419.4z M192.5,425.9
			c-3.3-3.1-7.3-4.6-11.4-3.9c-4,0.7-7.3,3.6-9.3,7.6c-2.1,4.1-2.9,9.5-1.9,15.1c1.1,6,3.1,11.2,6,14.6c2.5,2.9,5.6,4.5,9.4,4
			c0.4-0.1,0.9-0.1,1.4-0.2l0,0c5.7-1,9.3-3.8,11.3-7.6c2-3.9,2.5-8.8,1.9-13.8c-0.1-0.7-0.2-1.4-0.3-2.2
			C198.5,433.8,195.9,429.1,192.5,425.9z"/>
		<path class="st21" d="M176,422.3c8.9-1.6,17.8,6.7,19.9,18.5c2.1,11.8-3.4,22.7-12.3,24.2c-8.9,1.6-17.8-6.7-19.9-18.5
			C161.6,434.8,167.1,423.9,176,422.3z"/>
		<path class="st20" d="M175.7,421.1c4.9-0.9,9.7,0.9,13.6,4.6c3.8,3.5,6.7,8.8,7.8,15c1.1,6.2,0.2,12.1-2.2,16.8
			c-2.4,4.8-6.3,8.1-11.2,9c-4.9,0.9-9.7-0.9-13.6-4.6c-3.8-3.5-6.7-8.8-7.8-15c-1.1-6.2-0.2-12.1,2.1-16.8
			C167,425.3,170.9,421.9,175.7,421.1L175.7,421.1z M187.6,427.5c-3.3-3.1-7.3-4.6-11.4-3.9c-4,0.7-7.3,3.6-9.3,7.6
			c-2.1,4.1-2.9,9.5-1.9,15.1c1,5.6,3.6,10.4,7,13.6c3.3,3.1,7.3,4.6,11.4,3.9c4-0.7,7.3-3.6,9.3-7.6c2.1-4.1,2.9-9.5,1.9-15.1
			C193.6,435.5,191,430.7,187.6,427.5z"/>
		<path class="st21" d="M186,421.7c-0.3,2-8.2,1.9-8.7,0.5c-1.5-4.6-0.1-13.7,1.1-15.4c1.3-1.7,6.9-1,6.9,0.7
			C185.5,413.8,186.6,418.5,186,421.7z"/>
		<path class="st20" d="M187.3,421.9c-0.2,1-1,1.7-2.2,2.1c-0.8,0.3-1.9,0.4-3,0.5c-1.1,0-2.2,0-3.1-0.2c-1.5-0.2-2.6-0.8-2.9-1.7
			c-0.7-2.2-0.9-5.3-0.6-8.2c0.3-3.7,1.1-7.2,2-8.3c0.8-1,2.3-1.4,3.8-1.5c0.8,0,1.7,0.1,2.4,0.2c0.8,0.2,1.6,0.5,2.1,0.9
			c0.6,0.5,0.9,1,1,1.8c0.1,2.5,0.3,4.9,0.5,7C187.4,417.5,187.7,419.9,187.3,421.9L187.3,421.9z M184.3,421.5
			c0.3-0.1,0.5-0.4,0.5-0.5c0.3-1.7,0-3.5-0.2-6.3c-0.2-2-0.4-4.3-0.5-7c-0.2-0.2-0.6-0.3-1-0.4c-0.5-0.1-1.2-0.2-1.7-0.2
			c-0.8,0-1.6,0.2-1.8,0.4c-0.6,0.7-1.2,3.7-1.4,6.9c-0.2,2.6-0.4,4.8,0.3,6.7c0,0.1,0.6,0.4,1.1,0.5c0.7,0.1,1.7,0.2,2.6,0.1
			C182.9,421.8,183.7,421.7,184.3,421.5z"/>
		<path class="st22" d="M175.1,457.9c-3.3-1-7.3-13.6-7.2-17.4c0.2-4.3-0.2-11,6-11.5c3.9-0.3-1,11.8,1.8,19
			c0.5,1.2,5.7,12.9,0.2,10.4C175.5,458.2,175.4,458,175.1,457.9z"/>
	</g>
</g>
</svg>
